<svg xmlns="http://www.w3.org/2000/svg" viewBox="0 0 32 32">
  <defs>
    <clipPath id="top">
      <rect x="0" y="0" width="32" height="10.67"/>
    </clipPath>
    <clipPath id="middle">
      <rect x="0" y="10.67" width="32" height="10.67"/>
    </clipPath>
    <clipPath id="bottom">
      <rect x="0" y="21.33" width="32" height="10.67"/>
    </clipPath>
  </defs>
  
  <!-- Młotek w kolorach flagi niemieckiej -->
  <g clip-path="url(#top)">
    <path fill="#000000" d="M8 4L4 8L12 16L16 12L8 4ZM20 8L16 12L18 14L14 18L16 20L20 16L22 18L26 14L20 8Z"/>
  </g>
  <g clip-path="url(#middle)">
    <path fill="#DC2626" d="M8 4L4 8L12 16L16 12L8 4ZM20 8L16 12L18 14L14 18L16 20L20 16L22 18L26 14L20 8Z"/>
  </g>
  <g clip-path="url(#bottom)">
    <path fill="#FBBF24" d="M8 4L4 8L12 16L16 12L8 4ZM20 8L16 12L18 14L14 18L16 20L20 16L22 18L26 14L20 8Z"/>
  </g>
</svg>
